G04 #@! TF.FileFunction,Soldermask,Bot*
%FSLAX46Y46*%
G04 Gerber Fmt 4.6, Leading zero omitted, Abs format (unit mm)*
G04 Created by KiCad (PCBNEW 4.0.6-e0-6349~52~ubuntu16.10.1) date Mon May  1 13:22:21 2017*
%MOMM*%
%LPD*%
G01*
G04 APERTURE LIST*
%ADD10C,0.100000*%
%ADD11C,8.400000*%
%ADD12O,2.400000X2.400000*%
%ADD13C,2.400000*%
%ADD14C,2.600000*%
%ADD15O,2.127200X2.127200*%
%ADD16R,2.127200X2.127200*%
%ADD17R,2.100000X2.100000*%
%ADD18O,2.100000X2.100000*%
G04 APERTURE END LIST*
D10*
D11*
X130000000Y-110500000D03*
D12*
X160020000Y-106580000D03*
X160020000Y-104040000D03*
X160020000Y-101500000D03*
X160020000Y-98960000D03*
X160020000Y-96420000D03*
X160020000Y-93880000D03*
X160020000Y-91340000D03*
X160020000Y-88800000D03*
X137160000Y-88800000D03*
X137160000Y-91340000D03*
X137160000Y-93880000D03*
X137160000Y-96420000D03*
X137160000Y-98960000D03*
X137160000Y-101500000D03*
X137160000Y-104040000D03*
X137160000Y-106580000D03*
D13*
X155240000Y-81180000D03*
X152740000Y-81180000D03*
X144740000Y-81180000D03*
X142240000Y-81180000D03*
X144740000Y-100180000D03*
X142240000Y-100180000D03*
X155240000Y-100180000D03*
X152740000Y-100180000D03*
D11*
X190000000Y-110500000D03*
D14*
X192084630Y-100634678D03*
X187004630Y-100634678D03*
X187004630Y-95554678D03*
X192084630Y-95554678D03*
D13*
X189544630Y-98094678D03*
D11*
X190000000Y-85500000D03*
D15*
X170754630Y-80934678D03*
X170754630Y-83474678D03*
X173294630Y-80934678D03*
X173294630Y-83474678D03*
X175834630Y-80934678D03*
X175834630Y-83474678D03*
D16*
X178374630Y-80934678D03*
D15*
X178374630Y-83474678D03*
D11*
X130000000Y-85500000D03*
D17*
X130000000Y-93000000D03*
D18*
X130000000Y-95540000D03*
D11*
X130000000Y-47500000D03*
X130000000Y-72500000D03*
X190000000Y-72500000D03*
D14*
X192084630Y-62634678D03*
X187004630Y-62634678D03*
X187004630Y-57554678D03*
X192084630Y-57554678D03*
D13*
X189544630Y-60094678D03*
X155240000Y-43180000D03*
X152740000Y-43180000D03*
X144740000Y-43180000D03*
X142240000Y-43180000D03*
X144740000Y-62180000D03*
X142240000Y-62180000D03*
X155240000Y-62180000D03*
X152740000Y-62180000D03*
D12*
X160020000Y-68580000D03*
X160020000Y-66040000D03*
X160020000Y-63500000D03*
X160020000Y-60960000D03*
X160020000Y-58420000D03*
X160020000Y-55880000D03*
X160020000Y-53340000D03*
X160020000Y-50800000D03*
X137160000Y-50800000D03*
X137160000Y-53340000D03*
X137160000Y-55880000D03*
X137160000Y-58420000D03*
X137160000Y-60960000D03*
X137160000Y-63500000D03*
X137160000Y-66040000D03*
X137160000Y-68580000D03*
D15*
X170754630Y-42934678D03*
X170754630Y-45474678D03*
X173294630Y-42934678D03*
X173294630Y-45474678D03*
X175834630Y-42934678D03*
X175834630Y-45474678D03*
D16*
X178374630Y-42934678D03*
D15*
X178374630Y-45474678D03*
D17*
X130000000Y-55000000D03*
D18*
X130000000Y-57540000D03*
D11*
X190000000Y-47500000D03*
M02*
