M48
;DRILL file {KiCad 4.0.6-e0-6349~52~ubuntu16.10.1} date Mon May  1 13:22:25 2017
;FORMAT={-:-/ absolute / inch / decimal}
FMAT,2
INCH,TZ
T1C0.016
T2C0.039
T3C0.040
T4C0.059
T5C0.067
T6C0.157
%
G90
G05
M72
T1
X5.5803Y-2.2
X5.5803Y-3.6961
X5.7043Y-2.0299
X5.7043Y-3.526
X5.705Y-1.9675
X5.705Y-3.4636
X5.8154Y-2.028
X5.8154Y-3.524
X5.8228Y-1.9752
X5.8228Y-3.4713
X5.952Y-1.8855
X5.952Y-3.3816
X6.3252Y-1.7937
X6.3252Y-3.2898
X6.3921Y-2.0634
X6.3921Y-3.5594
X6.6205Y-2.1972
X6.6205Y-3.6933
X6.6248Y-1.898
X6.6248Y-3.3941
X6.6268Y-1.8433
X6.6268Y-3.3394
X6.8146Y-1.9878
X6.8146Y-3.4839
X6.8447Y-1.9575
X6.8447Y-3.4536
X6.9187Y-1.9577
X6.9187Y-3.4537
X6.9244Y-2.0023
X6.9244Y-3.4983
X6.9748Y-1.9551
X6.9748Y-3.4512
X7.0197Y-1.9512
X7.0197Y-3.4472
X7.0839Y-2.0236
X7.0839Y-3.5197
X7.1232Y-1.7165
X7.1232Y-3.2126
X7.1327Y-1.948
X7.1327Y-3.4441
X7.2835Y-2.2047
X7.2835Y-3.7008
X7.4803Y-2.5197
X7.4803Y-4.0157
X7.5984Y-2.126
X7.5984Y-3.622
T2
X5.1181Y-2.1654
X5.1181Y-2.2654
X5.1181Y-3.6614
X5.1181Y-3.7614
X5.4Y-2.
X5.4Y-2.1
X5.4Y-2.2
X5.4Y-2.3
X5.4Y-2.4
X5.4Y-2.5
X5.4Y-2.6
X5.4Y-2.7
X5.4Y-3.4961
X5.4Y-3.5961
X5.4Y-3.6961
X5.4Y-3.7961
X5.4Y-3.8961
X5.4Y-3.9961
X5.4Y-4.0961
X5.4Y-4.1961
X5.6Y-1.7
X5.6Y-2.448
X5.6Y-3.1961
X5.6Y-3.9441
X5.6984Y-1.7
X5.6984Y-2.448
X5.6984Y-3.1961
X5.6984Y-3.9441
X6.0134Y-1.7
X6.0134Y-2.448
X6.0134Y-3.1961
X6.0134Y-3.9441
X6.1118Y-1.7
X6.1118Y-2.448
X6.1118Y-3.1961
X6.1118Y-3.9441
X6.3Y-2.
X6.3Y-2.1
X6.3Y-2.2
X6.3Y-2.3
X6.3Y-2.4
X6.3Y-2.5
X6.3Y-2.6
X6.3Y-2.7
X6.3Y-3.4961
X6.3Y-3.5961
X6.3Y-3.6961
X6.3Y-3.7961
X6.3Y-3.8961
X6.3Y-3.9961
X6.3Y-4.0961
X6.3Y-4.1961
T3
X6.7226Y-1.6903
X6.7226Y-1.7903
X6.7226Y-3.1864
X6.7226Y-3.2864
X6.8226Y-1.6903
X6.8226Y-1.7903
X6.8226Y-3.1864
X6.8226Y-3.2864
X6.9226Y-1.6903
X6.9226Y-1.7903
X6.9226Y-3.1864
X6.9226Y-3.2864
X7.0226Y-1.6903
X7.0226Y-1.7903
X7.0226Y-3.1864
X7.0226Y-3.2864
T4
X7.4624Y-2.3659
X7.4624Y-3.862
T5
X7.3624Y-2.2659
X7.3624Y-2.4659
X7.3624Y-3.762
X7.3624Y-3.962
X7.5624Y-2.2659
X7.5624Y-2.4659
X7.5624Y-3.762
X7.5624Y-3.962
T6
X5.1181Y-1.8701
X5.1181Y-2.8543
X5.1181Y-3.3661
X5.1181Y-4.3504
X7.4803Y-1.8701
X7.4803Y-2.8543
X7.4803Y-3.3661
X7.4803Y-4.3504
T0
M30
