G04 #@! TF.FileFunction,Legend,Top*
%FSLAX46Y46*%
G04 Gerber Fmt 4.6, Leading zero omitted, Abs format (unit mm)*
G04 Created by KiCad (PCBNEW 4.0.6-e0-6349~52~ubuntu16.10.1) date Mon May  1 13:22:21 2017*
%MOMM*%
%LPD*%
G01*
G04 APERTURE LIST*
%ADD10C,0.100000*%
%ADD11C,0.120000*%
%ADD12C,0.150000*%
%ADD13C,0.160000*%
G04 APERTURE END LIST*
D10*
D11*
X128670000Y-111770000D02*
X128670000Y-111830000D01*
X128670000Y-111830000D02*
X131330000Y-111830000D01*
X131330000Y-111830000D02*
X131330000Y-111770000D01*
X131330000Y-111770000D02*
X128670000Y-111770000D01*
X128670000Y-110500000D02*
X128670000Y-109170000D01*
X128670000Y-109170000D02*
X130000000Y-109170000D01*
X146220000Y-108520000D02*
X146920000Y-108520000D01*
X146920000Y-109720000D02*
X146220000Y-109720000D01*
X142920000Y-105560000D02*
X142920000Y-106560000D01*
X141560000Y-106560000D02*
X141560000Y-105560000D01*
X146540000Y-107210000D02*
X146540000Y-106280000D01*
X146540000Y-104050000D02*
X146540000Y-104980000D01*
X146540000Y-104050000D02*
X144380000Y-104050000D01*
X146540000Y-107210000D02*
X145080000Y-107210000D01*
D12*
X156740000Y-79680000D02*
X140740000Y-79680000D01*
X140740000Y-79680000D02*
X140740000Y-101680000D01*
X140740000Y-101680000D02*
X156740000Y-101680000D01*
X156740000Y-101680000D02*
X156740000Y-79680000D01*
D11*
X144110000Y-87700000D02*
X144110000Y-88400000D01*
X142910000Y-88400000D02*
X142910000Y-87700000D01*
X148370000Y-96205000D02*
X148370000Y-100455000D01*
X146270000Y-96205000D02*
X146270000Y-100455000D01*
X148370000Y-96205000D02*
X146270000Y-96205000D01*
X150910000Y-96310000D02*
X150910000Y-100560000D01*
X148810000Y-96310000D02*
X148810000Y-100560000D01*
X150910000Y-96310000D02*
X148810000Y-96310000D01*
X154270000Y-87700000D02*
X154270000Y-88400000D01*
X153070000Y-88400000D02*
X153070000Y-87700000D01*
X142020000Y-86255000D02*
X142020000Y-90505000D01*
X139920000Y-86255000D02*
X139920000Y-90505000D01*
X142020000Y-86255000D02*
X139920000Y-86255000D01*
X145420000Y-92590000D02*
X146680000Y-92590000D01*
X152240000Y-92590000D02*
X150980000Y-92590000D01*
X145420000Y-88830000D02*
X145420000Y-92590000D01*
X152240000Y-86580000D02*
X152240000Y-92590000D01*
X188670000Y-111770000D02*
X188670000Y-111830000D01*
X188670000Y-111830000D02*
X191330000Y-111830000D01*
X191330000Y-111830000D02*
X191330000Y-111770000D01*
X191330000Y-111770000D02*
X188670000Y-111770000D01*
X188670000Y-110500000D02*
X188670000Y-109170000D01*
X188670000Y-109170000D02*
X190000000Y-109170000D01*
X186244630Y-99094678D02*
X186244630Y-97094678D01*
X192844630Y-99094678D02*
X192844630Y-97094678D01*
X188544630Y-94794678D02*
X190544630Y-94794678D01*
X188544630Y-101394678D02*
X190544630Y-101394678D01*
X188670000Y-86770000D02*
X188670000Y-86830000D01*
X188670000Y-86830000D02*
X191330000Y-86830000D01*
X191330000Y-86830000D02*
X191330000Y-86770000D01*
X191330000Y-86770000D02*
X188670000Y-86770000D01*
X188670000Y-85500000D02*
X188670000Y-84170000D01*
X188670000Y-84170000D02*
X190000000Y-84170000D01*
D12*
X177104630Y-79537678D02*
X179771630Y-79537678D01*
X179771630Y-79537678D02*
X179771630Y-82204678D01*
X172024630Y-79664678D02*
X169484630Y-79664678D01*
X169484630Y-79664678D02*
X169484630Y-82204678D01*
X177104630Y-79664678D02*
X177104630Y-82204678D01*
X177104630Y-82204678D02*
X179644630Y-82204678D01*
X172024630Y-79664678D02*
X179644630Y-79664678D01*
X179644630Y-79664678D02*
X179644630Y-84744678D01*
X179644630Y-84744678D02*
X169484630Y-84744678D01*
X169484630Y-84744678D02*
X169484630Y-82204678D01*
D11*
X180330000Y-83970000D02*
X180330000Y-83270000D01*
X181530000Y-83270000D02*
X181530000Y-83970000D01*
X166360000Y-94130000D02*
X166360000Y-93430000D01*
X167560000Y-93430000D02*
X167560000Y-94130000D01*
D12*
X163044630Y-95474678D02*
X163044630Y-79474678D01*
X184744630Y-95474678D02*
X163044630Y-95474678D01*
X184744630Y-79474678D02*
X184744630Y-95474678D01*
X163044630Y-79474678D02*
X184744630Y-79474678D01*
D11*
X128670000Y-86770000D02*
X128670000Y-86830000D01*
X128670000Y-86830000D02*
X131330000Y-86830000D01*
X131330000Y-86830000D02*
X131330000Y-86770000D01*
X131330000Y-86770000D02*
X128670000Y-86770000D01*
X128670000Y-85500000D02*
X128670000Y-84170000D01*
X128670000Y-84170000D02*
X130000000Y-84170000D01*
X139720000Y-93200000D02*
X140720000Y-93200000D01*
X140720000Y-94560000D02*
X139720000Y-94560000D01*
X157260000Y-86150000D02*
X157260000Y-90400000D01*
X155160000Y-86150000D02*
X155160000Y-90400000D01*
X157260000Y-86150000D02*
X155160000Y-86150000D01*
X128670000Y-94270000D02*
X128670000Y-96870000D01*
X128670000Y-96870000D02*
X131330000Y-96870000D01*
X131330000Y-96870000D02*
X131330000Y-94270000D01*
X131330000Y-94270000D02*
X128670000Y-94270000D01*
X128670000Y-93000000D02*
X128670000Y-91670000D01*
X128670000Y-91670000D02*
X130000000Y-91670000D01*
X128670000Y-48770000D02*
X128670000Y-48830000D01*
X128670000Y-48830000D02*
X131330000Y-48830000D01*
X131330000Y-48830000D02*
X131330000Y-48770000D01*
X131330000Y-48770000D02*
X128670000Y-48770000D01*
X128670000Y-47500000D02*
X128670000Y-46170000D01*
X128670000Y-46170000D02*
X130000000Y-46170000D01*
X128670000Y-73770000D02*
X128670000Y-73830000D01*
X128670000Y-73830000D02*
X131330000Y-73830000D01*
X131330000Y-73830000D02*
X131330000Y-73770000D01*
X131330000Y-73770000D02*
X128670000Y-73770000D01*
X128670000Y-72500000D02*
X128670000Y-71170000D01*
X128670000Y-71170000D02*
X130000000Y-71170000D01*
X188670000Y-73770000D02*
X188670000Y-73830000D01*
X188670000Y-73830000D02*
X191330000Y-73830000D01*
X191330000Y-73830000D02*
X191330000Y-73770000D01*
X191330000Y-73770000D02*
X188670000Y-73770000D01*
X188670000Y-72500000D02*
X188670000Y-71170000D01*
X188670000Y-71170000D02*
X190000000Y-71170000D01*
X142020000Y-48255000D02*
X142020000Y-52505000D01*
X139920000Y-48255000D02*
X139920000Y-52505000D01*
X142020000Y-48255000D02*
X139920000Y-48255000D01*
X144110000Y-49700000D02*
X144110000Y-50400000D01*
X142910000Y-50400000D02*
X142910000Y-49700000D01*
X154270000Y-49700000D02*
X154270000Y-50400000D01*
X153070000Y-50400000D02*
X153070000Y-49700000D01*
X157260000Y-48150000D02*
X157260000Y-52400000D01*
X155160000Y-48150000D02*
X155160000Y-52400000D01*
X157260000Y-48150000D02*
X155160000Y-48150000D01*
X148370000Y-58205000D02*
X148370000Y-62455000D01*
X146270000Y-58205000D02*
X146270000Y-62455000D01*
X148370000Y-58205000D02*
X146270000Y-58205000D01*
X150910000Y-58310000D02*
X150910000Y-62560000D01*
X148810000Y-58310000D02*
X148810000Y-62560000D01*
X150910000Y-58310000D02*
X148810000Y-58310000D01*
X146220000Y-70520000D02*
X146920000Y-70520000D01*
X146920000Y-71720000D02*
X146220000Y-71720000D01*
X166360000Y-56130000D02*
X166360000Y-55430000D01*
X167560000Y-55430000D02*
X167560000Y-56130000D01*
X180330000Y-45970000D02*
X180330000Y-45270000D01*
X181530000Y-45270000D02*
X181530000Y-45970000D01*
X186244630Y-61094678D02*
X186244630Y-59094678D01*
X192844630Y-61094678D02*
X192844630Y-59094678D01*
X188544630Y-56794678D02*
X190544630Y-56794678D01*
X188544630Y-63394678D02*
X190544630Y-63394678D01*
X139720000Y-55200000D02*
X140720000Y-55200000D01*
X140720000Y-56560000D02*
X139720000Y-56560000D01*
X142920000Y-67560000D02*
X142920000Y-68560000D01*
X141560000Y-68560000D02*
X141560000Y-67560000D01*
X145420000Y-54590000D02*
X146680000Y-54590000D01*
X152240000Y-54590000D02*
X150980000Y-54590000D01*
X145420000Y-50830000D02*
X145420000Y-54590000D01*
X152240000Y-48580000D02*
X152240000Y-54590000D01*
D12*
X156740000Y-41680000D02*
X140740000Y-41680000D01*
X140740000Y-41680000D02*
X140740000Y-63680000D01*
X140740000Y-63680000D02*
X156740000Y-63680000D01*
X156740000Y-63680000D02*
X156740000Y-41680000D01*
D11*
X146540000Y-69210000D02*
X146540000Y-68280000D01*
X146540000Y-66050000D02*
X146540000Y-66980000D01*
X146540000Y-66050000D02*
X144380000Y-66050000D01*
X146540000Y-69210000D02*
X145080000Y-69210000D01*
D12*
X177104630Y-41537678D02*
X179771630Y-41537678D01*
X179771630Y-41537678D02*
X179771630Y-44204678D01*
X172024630Y-41664678D02*
X169484630Y-41664678D01*
X169484630Y-41664678D02*
X169484630Y-44204678D01*
X177104630Y-41664678D02*
X177104630Y-44204678D01*
X177104630Y-44204678D02*
X179644630Y-44204678D01*
X172024630Y-41664678D02*
X179644630Y-41664678D01*
X179644630Y-41664678D02*
X179644630Y-46744678D01*
X179644630Y-46744678D02*
X169484630Y-46744678D01*
X169484630Y-46744678D02*
X169484630Y-44204678D01*
X163044630Y-57474678D02*
X163044630Y-41474678D01*
X184744630Y-57474678D02*
X163044630Y-57474678D01*
X184744630Y-41474678D02*
X184744630Y-57474678D01*
X163044630Y-41474678D02*
X184744630Y-41474678D01*
D11*
X128670000Y-56270000D02*
X128670000Y-58870000D01*
X128670000Y-58870000D02*
X131330000Y-58870000D01*
X131330000Y-58870000D02*
X131330000Y-56270000D01*
X131330000Y-56270000D02*
X128670000Y-56270000D01*
X128670000Y-55000000D02*
X128670000Y-53670000D01*
X128670000Y-53670000D02*
X130000000Y-53670000D01*
X188670000Y-48770000D02*
X188670000Y-48830000D01*
X188670000Y-48830000D02*
X191330000Y-48830000D01*
X191330000Y-48830000D02*
X191330000Y-48770000D01*
X191330000Y-48770000D02*
X188670000Y-48770000D01*
X188670000Y-47500000D02*
X188670000Y-46170000D01*
X188670000Y-46170000D02*
X190000000Y-46170000D01*
D12*
X128666667Y-108622381D02*
X128333333Y-108146190D01*
X128095238Y-108622381D02*
X128095238Y-107622381D01*
X128476191Y-107622381D01*
X128571429Y-107670000D01*
X128619048Y-107717619D01*
X128666667Y-107812857D01*
X128666667Y-107955714D01*
X128619048Y-108050952D01*
X128571429Y-108098571D01*
X128476191Y-108146190D01*
X128095238Y-108146190D01*
X129095238Y-108098571D02*
X129428572Y-108098571D01*
X129571429Y-108622381D02*
X129095238Y-108622381D01*
X129095238Y-107622381D01*
X129571429Y-107622381D01*
X130333334Y-108098571D02*
X130000000Y-108098571D01*
X130000000Y-108622381D02*
X130000000Y-107622381D01*
X130476191Y-107622381D01*
X131000000Y-107622381D02*
X131000000Y-107860476D01*
X130761905Y-107765238D02*
X131000000Y-107860476D01*
X131238096Y-107765238D01*
X130857143Y-108050952D02*
X131000000Y-107860476D01*
X131142858Y-108050952D01*
X131761905Y-107622381D02*
X131761905Y-107860476D01*
X131523810Y-107765238D02*
X131761905Y-107860476D01*
X132000001Y-107765238D01*
X131619048Y-108050952D02*
X131761905Y-107860476D01*
X131904763Y-108050952D01*
X146403334Y-107977143D02*
X146355715Y-108024762D01*
X146212858Y-108072381D01*
X146117620Y-108072381D01*
X145974762Y-108024762D01*
X145879524Y-107929524D01*
X145831905Y-107834286D01*
X145784286Y-107643810D01*
X145784286Y-107500952D01*
X145831905Y-107310476D01*
X145879524Y-107215238D01*
X145974762Y-107120000D01*
X146117620Y-107072381D01*
X146212858Y-107072381D01*
X146355715Y-107120000D01*
X146403334Y-107167619D01*
X146736667Y-107072381D02*
X147403334Y-107072381D01*
X146974762Y-108072381D01*
X141242381Y-106226666D02*
X140766190Y-106560000D01*
X141242381Y-106798095D02*
X140242381Y-106798095D01*
X140242381Y-106417142D01*
X140290000Y-106321904D01*
X140337619Y-106274285D01*
X140432857Y-106226666D01*
X140575714Y-106226666D01*
X140670952Y-106274285D01*
X140718571Y-106321904D01*
X140766190Y-106417142D01*
X140766190Y-106798095D01*
X141242381Y-105274285D02*
X141242381Y-105845714D01*
X141242381Y-105560000D02*
X140242381Y-105560000D01*
X140385238Y-105655238D01*
X140480476Y-105750476D01*
X140528095Y-105845714D01*
X145018095Y-102582381D02*
X145018095Y-103391905D01*
X145065714Y-103487143D01*
X145113333Y-103534762D01*
X145208571Y-103582381D01*
X145399048Y-103582381D01*
X145494286Y-103534762D01*
X145541905Y-103487143D01*
X145589524Y-103391905D01*
X145589524Y-102582381D01*
X146494286Y-102915714D02*
X146494286Y-103582381D01*
X146256190Y-102534762D02*
X146018095Y-103249048D01*
X146637143Y-103249048D01*
X139660381Y-97181905D02*
X140469905Y-97181905D01*
X140565143Y-97134286D01*
X140612762Y-97086667D01*
X140660381Y-96991429D01*
X140660381Y-96800952D01*
X140612762Y-96705714D01*
X140565143Y-96658095D01*
X140469905Y-96610476D01*
X139660381Y-96610476D01*
X139660381Y-96229524D02*
X139660381Y-95610476D01*
X140041333Y-95943810D01*
X140041333Y-95800952D01*
X140088952Y-95705714D01*
X140136571Y-95658095D01*
X140231810Y-95610476D01*
X140469905Y-95610476D01*
X140565143Y-95658095D01*
X140612762Y-95705714D01*
X140660381Y-95800952D01*
X140660381Y-96086667D01*
X140612762Y-96181905D01*
X140565143Y-96229524D01*
D10*
X138664190Y-88895237D02*
X138664190Y-89133332D01*
X138902286Y-89157142D01*
X138878476Y-89133332D01*
X138854667Y-89085713D01*
X138854667Y-88966666D01*
X138878476Y-88919047D01*
X138902286Y-88895237D01*
X138949905Y-88871428D01*
X139068952Y-88871428D01*
X139116571Y-88895237D01*
X139140381Y-88919047D01*
X139164190Y-88966666D01*
X139164190Y-89085713D01*
X139140381Y-89133332D01*
X139116571Y-89157142D01*
X138664190Y-88728571D02*
X139164190Y-88561904D01*
X138664190Y-88395238D01*
X138688000Y-91720953D02*
X138664190Y-91768572D01*
X138664190Y-91840000D01*
X138688000Y-91911429D01*
X138735619Y-91959048D01*
X138783238Y-91982857D01*
X138878476Y-92006667D01*
X138949905Y-92006667D01*
X139045143Y-91982857D01*
X139092762Y-91959048D01*
X139140381Y-91911429D01*
X139164190Y-91840000D01*
X139164190Y-91792381D01*
X139140381Y-91720953D01*
X139116571Y-91697143D01*
X138949905Y-91697143D01*
X138949905Y-91792381D01*
X139164190Y-91482857D02*
X138664190Y-91482857D01*
X139164190Y-91197143D01*
X138664190Y-91197143D01*
X139164190Y-90959047D02*
X138664190Y-90959047D01*
X138664190Y-90840000D01*
X138688000Y-90768571D01*
X138735619Y-90720952D01*
X138783238Y-90697143D01*
X138878476Y-90673333D01*
X138949905Y-90673333D01*
X139045143Y-90697143D01*
X139092762Y-90720952D01*
X139140381Y-90768571D01*
X139164190Y-90840000D01*
X139164190Y-90959047D01*
X139164190Y-94249047D02*
X138664190Y-94249047D01*
X138664190Y-94130000D01*
X138688000Y-94058571D01*
X138735619Y-94010952D01*
X138783238Y-93987143D01*
X138878476Y-93963333D01*
X138949905Y-93963333D01*
X139045143Y-93987143D01*
X139092762Y-94010952D01*
X139140381Y-94058571D01*
X139164190Y-94130000D01*
X139164190Y-94249047D01*
X138830857Y-93534762D02*
X139164190Y-93534762D01*
X138640381Y-93653809D02*
X138997524Y-93772857D01*
X138997524Y-93463333D01*
X139164190Y-96789047D02*
X138664190Y-96789047D01*
X138664190Y-96670000D01*
X138688000Y-96598571D01*
X138735619Y-96550952D01*
X138783238Y-96527143D01*
X138878476Y-96503333D01*
X138949905Y-96503333D01*
X139045143Y-96527143D01*
X139092762Y-96550952D01*
X139140381Y-96598571D01*
X139164190Y-96670000D01*
X139164190Y-96789047D01*
X138664190Y-96336666D02*
X138664190Y-96027143D01*
X138854667Y-96193809D01*
X138854667Y-96122381D01*
X138878476Y-96074762D01*
X138902286Y-96050952D01*
X138949905Y-96027143D01*
X139068952Y-96027143D01*
X139116571Y-96050952D01*
X139140381Y-96074762D01*
X139164190Y-96122381D01*
X139164190Y-96265238D01*
X139140381Y-96312857D01*
X139116571Y-96336666D01*
X139164190Y-99329047D02*
X138664190Y-99329047D01*
X138664190Y-99210000D01*
X138688000Y-99138571D01*
X138735619Y-99090952D01*
X138783238Y-99067143D01*
X138878476Y-99043333D01*
X138949905Y-99043333D01*
X139045143Y-99067143D01*
X139092762Y-99090952D01*
X139140381Y-99138571D01*
X139164190Y-99210000D01*
X139164190Y-99329047D01*
X138711810Y-98852857D02*
X138688000Y-98829047D01*
X138664190Y-98781428D01*
X138664190Y-98662381D01*
X138688000Y-98614762D01*
X138711810Y-98590952D01*
X138759429Y-98567143D01*
X138807048Y-98567143D01*
X138878476Y-98590952D01*
X139164190Y-98876666D01*
X139164190Y-98567143D01*
X139164190Y-101869047D02*
X138664190Y-101869047D01*
X138664190Y-101750000D01*
X138688000Y-101678571D01*
X138735619Y-101630952D01*
X138783238Y-101607143D01*
X138878476Y-101583333D01*
X138949905Y-101583333D01*
X139045143Y-101607143D01*
X139092762Y-101630952D01*
X139140381Y-101678571D01*
X139164190Y-101750000D01*
X139164190Y-101869047D01*
X139164190Y-101107143D02*
X139164190Y-101392857D01*
X139164190Y-101250000D02*
X138664190Y-101250000D01*
X138735619Y-101297619D01*
X138783238Y-101345238D01*
X138807048Y-101392857D01*
X139164190Y-104123333D02*
X138926095Y-104290000D01*
X139164190Y-104409047D02*
X138664190Y-104409047D01*
X138664190Y-104218571D01*
X138688000Y-104170952D01*
X138711810Y-104147143D01*
X138759429Y-104123333D01*
X138830857Y-104123333D01*
X138878476Y-104147143D01*
X138902286Y-104170952D01*
X138926095Y-104218571D01*
X138926095Y-104409047D01*
X138664190Y-103956666D02*
X139164190Y-103623333D01*
X138664190Y-103623333D02*
X139164190Y-103956666D01*
X138664190Y-106960952D02*
X138664190Y-106675238D01*
X139164190Y-106818095D02*
X138664190Y-106818095D01*
X138664190Y-106556190D02*
X139164190Y-106222857D01*
X138664190Y-106222857D02*
X139164190Y-106556190D01*
X157968190Y-89419046D02*
X157968190Y-89109523D01*
X158158667Y-89276189D01*
X158158667Y-89204761D01*
X158182476Y-89157142D01*
X158206286Y-89133332D01*
X158253905Y-89109523D01*
X158372952Y-89109523D01*
X158420571Y-89133332D01*
X158444381Y-89157142D01*
X158468190Y-89204761D01*
X158468190Y-89347618D01*
X158444381Y-89395237D01*
X158420571Y-89419046D01*
X157968190Y-88966666D02*
X158468190Y-88799999D01*
X157968190Y-88633333D01*
X157968190Y-88514285D02*
X157968190Y-88204762D01*
X158158667Y-88371428D01*
X158158667Y-88300000D01*
X158182476Y-88252381D01*
X158206286Y-88228571D01*
X158253905Y-88204762D01*
X158372952Y-88204762D01*
X158420571Y-88228571D01*
X158444381Y-88252381D01*
X158468190Y-88300000D01*
X158468190Y-88442857D01*
X158444381Y-88490476D01*
X158420571Y-88514285D01*
X158468190Y-91470952D02*
X157968190Y-91470952D01*
X158444381Y-91470952D02*
X158468190Y-91518571D01*
X158468190Y-91613809D01*
X158444381Y-91661428D01*
X158420571Y-91685237D01*
X158372952Y-91709047D01*
X158230095Y-91709047D01*
X158182476Y-91685237D01*
X158158667Y-91661428D01*
X158134857Y-91613809D01*
X158134857Y-91518571D01*
X158158667Y-91470952D01*
X158182476Y-91161428D02*
X158158667Y-91209047D01*
X158134857Y-91232856D01*
X158087238Y-91256666D01*
X158063429Y-91256666D01*
X158015810Y-91232856D01*
X157992000Y-91209047D01*
X157968190Y-91161428D01*
X157968190Y-91066190D01*
X157992000Y-91018571D01*
X158015810Y-90994761D01*
X158063429Y-90970952D01*
X158087238Y-90970952D01*
X158134857Y-90994761D01*
X158158667Y-91018571D01*
X158182476Y-91066190D01*
X158182476Y-91161428D01*
X158206286Y-91209047D01*
X158230095Y-91232856D01*
X158277714Y-91256666D01*
X158372952Y-91256666D01*
X158420571Y-91232856D01*
X158444381Y-91209047D01*
X158468190Y-91161428D01*
X158468190Y-91066190D01*
X158444381Y-91018571D01*
X158420571Y-90994761D01*
X158372952Y-90970952D01*
X158277714Y-90970952D01*
X158230095Y-90994761D01*
X158206286Y-91018571D01*
X158182476Y-91066190D01*
X158468190Y-94249047D02*
X157968190Y-94249047D01*
X157968190Y-94130000D01*
X157992000Y-94058571D01*
X158039619Y-94010952D01*
X158087238Y-93987143D01*
X158182476Y-93963333D01*
X158253905Y-93963333D01*
X158349143Y-93987143D01*
X158396762Y-94010952D01*
X158444381Y-94058571D01*
X158468190Y-94130000D01*
X158468190Y-94249047D01*
X157968190Y-93796666D02*
X157968190Y-93463333D01*
X158468190Y-93677619D01*
X158468190Y-96789047D02*
X157968190Y-96789047D01*
X157968190Y-96670000D01*
X157992000Y-96598571D01*
X158039619Y-96550952D01*
X158087238Y-96527143D01*
X158182476Y-96503333D01*
X158253905Y-96503333D01*
X158349143Y-96527143D01*
X158396762Y-96550952D01*
X158444381Y-96598571D01*
X158468190Y-96670000D01*
X158468190Y-96789047D01*
X157968190Y-96074762D02*
X157968190Y-96170000D01*
X157992000Y-96217619D01*
X158015810Y-96241428D01*
X158087238Y-96289047D01*
X158182476Y-96312857D01*
X158372952Y-96312857D01*
X158420571Y-96289047D01*
X158444381Y-96265238D01*
X158468190Y-96217619D01*
X158468190Y-96122381D01*
X158444381Y-96074762D01*
X158420571Y-96050952D01*
X158372952Y-96027143D01*
X158253905Y-96027143D01*
X158206286Y-96050952D01*
X158182476Y-96074762D01*
X158158667Y-96122381D01*
X158158667Y-96217619D01*
X158182476Y-96265238D01*
X158206286Y-96289047D01*
X158253905Y-96312857D01*
X158468190Y-99329047D02*
X157968190Y-99329047D01*
X157968190Y-99210000D01*
X157992000Y-99138571D01*
X158039619Y-99090952D01*
X158087238Y-99067143D01*
X158182476Y-99043333D01*
X158253905Y-99043333D01*
X158349143Y-99067143D01*
X158396762Y-99090952D01*
X158444381Y-99138571D01*
X158468190Y-99210000D01*
X158468190Y-99329047D01*
X157968190Y-98590952D02*
X157968190Y-98829047D01*
X158206286Y-98852857D01*
X158182476Y-98829047D01*
X158158667Y-98781428D01*
X158158667Y-98662381D01*
X158182476Y-98614762D01*
X158206286Y-98590952D01*
X158253905Y-98567143D01*
X158372952Y-98567143D01*
X158420571Y-98590952D01*
X158444381Y-98614762D01*
X158468190Y-98662381D01*
X158468190Y-98781428D01*
X158444381Y-98829047D01*
X158420571Y-98852857D01*
X158468190Y-101869047D02*
X157968190Y-101869047D01*
X157968190Y-101750000D01*
X157992000Y-101678571D01*
X158039619Y-101630952D01*
X158087238Y-101607143D01*
X158182476Y-101583333D01*
X158253905Y-101583333D01*
X158349143Y-101607143D01*
X158396762Y-101630952D01*
X158444381Y-101678571D01*
X158468190Y-101750000D01*
X158468190Y-101869047D01*
X157968190Y-101273809D02*
X157968190Y-101226190D01*
X157992000Y-101178571D01*
X158015810Y-101154762D01*
X158063429Y-101130952D01*
X158158667Y-101107143D01*
X158277714Y-101107143D01*
X158372952Y-101130952D01*
X158420571Y-101154762D01*
X158444381Y-101178571D01*
X158468190Y-101226190D01*
X158468190Y-101273809D01*
X158444381Y-101321428D01*
X158420571Y-101345238D01*
X158372952Y-101369047D01*
X158277714Y-101392857D01*
X158158667Y-101392857D01*
X158063429Y-101369047D01*
X158015810Y-101345238D01*
X157992000Y-101321428D01*
X157968190Y-101273809D01*
X158325333Y-104397142D02*
X158325333Y-104159047D01*
X158468190Y-104444761D02*
X157968190Y-104278094D01*
X158468190Y-104111428D01*
X157968190Y-103849523D02*
X157968190Y-103801904D01*
X157992000Y-103754285D01*
X158015810Y-103730476D01*
X158063429Y-103706666D01*
X158158667Y-103682857D01*
X158277714Y-103682857D01*
X158372952Y-103706666D01*
X158420571Y-103730476D01*
X158444381Y-103754285D01*
X158468190Y-103801904D01*
X158468190Y-103849523D01*
X158444381Y-103897142D01*
X158420571Y-103920952D01*
X158372952Y-103944761D01*
X158277714Y-103968571D01*
X158158667Y-103968571D01*
X158063429Y-103944761D01*
X158015810Y-103920952D01*
X157992000Y-103897142D01*
X157968190Y-103849523D01*
X158468190Y-106853809D02*
X158230095Y-107020476D01*
X158468190Y-107139523D02*
X157968190Y-107139523D01*
X157968190Y-106949047D01*
X157992000Y-106901428D01*
X158015810Y-106877619D01*
X158063429Y-106853809D01*
X158134857Y-106853809D01*
X158182476Y-106877619D01*
X158206286Y-106901428D01*
X158230095Y-106949047D01*
X158230095Y-107139523D01*
X158444381Y-106663333D02*
X158468190Y-106591904D01*
X158468190Y-106472857D01*
X158444381Y-106425238D01*
X158420571Y-106401428D01*
X158372952Y-106377619D01*
X158325333Y-106377619D01*
X158277714Y-106401428D01*
X158253905Y-106425238D01*
X158230095Y-106472857D01*
X158206286Y-106568095D01*
X158182476Y-106615714D01*
X158158667Y-106639523D01*
X158111048Y-106663333D01*
X158063429Y-106663333D01*
X158015810Y-106639523D01*
X157992000Y-106615714D01*
X157968190Y-106568095D01*
X157968190Y-106449047D01*
X157992000Y-106377619D01*
X157968190Y-106234762D02*
X157968190Y-105949048D01*
X158468190Y-106091905D02*
X157968190Y-106091905D01*
D12*
X145652381Y-91441905D02*
X146461905Y-91441905D01*
X146557143Y-91394286D01*
X146604762Y-91346667D01*
X146652381Y-91251429D01*
X146652381Y-91060952D01*
X146604762Y-90965714D01*
X146557143Y-90918095D01*
X146461905Y-90870476D01*
X145652381Y-90870476D01*
X145747619Y-90441905D02*
X145700000Y-90394286D01*
X145652381Y-90299048D01*
X145652381Y-90060952D01*
X145700000Y-89965714D01*
X145747619Y-89918095D01*
X145842857Y-89870476D01*
X145938095Y-89870476D01*
X146080952Y-89918095D01*
X146652381Y-90489524D01*
X146652381Y-89870476D01*
X145367143Y-88216666D02*
X145414762Y-88264285D01*
X145462381Y-88407142D01*
X145462381Y-88502380D01*
X145414762Y-88645238D01*
X145319524Y-88740476D01*
X145224286Y-88788095D01*
X145033810Y-88835714D01*
X144890952Y-88835714D01*
X144700476Y-88788095D01*
X144605238Y-88740476D01*
X144510000Y-88645238D01*
X144462381Y-88502380D01*
X144462381Y-88407142D01*
X144510000Y-88264285D01*
X144557619Y-88216666D01*
X144557619Y-87835714D02*
X144510000Y-87788095D01*
X144462381Y-87692857D01*
X144462381Y-87454761D01*
X144510000Y-87359523D01*
X144557619Y-87311904D01*
X144652857Y-87264285D01*
X144748095Y-87264285D01*
X144890952Y-87311904D01*
X145462381Y-87883333D01*
X145462381Y-87264285D01*
X150227143Y-99021666D02*
X150274762Y-99069285D01*
X150322381Y-99212142D01*
X150322381Y-99307380D01*
X150274762Y-99450238D01*
X150179524Y-99545476D01*
X150084286Y-99593095D01*
X149893810Y-99640714D01*
X149750952Y-99640714D01*
X149560476Y-99593095D01*
X149465238Y-99545476D01*
X149370000Y-99450238D01*
X149322381Y-99307380D01*
X149322381Y-99212142D01*
X149370000Y-99069285D01*
X149417619Y-99021666D01*
X149322381Y-98116904D02*
X149322381Y-98593095D01*
X149798571Y-98640714D01*
X149750952Y-98593095D01*
X149703333Y-98497857D01*
X149703333Y-98259761D01*
X149750952Y-98164523D01*
X149798571Y-98116904D01*
X149893810Y-98069285D01*
X150131905Y-98069285D01*
X150227143Y-98116904D01*
X150274762Y-98164523D01*
X150322381Y-98259761D01*
X150322381Y-98497857D01*
X150274762Y-98593095D01*
X150227143Y-98640714D01*
X152767143Y-99126666D02*
X152814762Y-99174285D01*
X152862381Y-99317142D01*
X152862381Y-99412380D01*
X152814762Y-99555238D01*
X152719524Y-99650476D01*
X152624286Y-99698095D01*
X152433810Y-99745714D01*
X152290952Y-99745714D01*
X152100476Y-99698095D01*
X152005238Y-99650476D01*
X151910000Y-99555238D01*
X151862381Y-99412380D01*
X151862381Y-99317142D01*
X151910000Y-99174285D01*
X151957619Y-99126666D01*
X151862381Y-98269523D02*
X151862381Y-98460000D01*
X151910000Y-98555238D01*
X151957619Y-98602857D01*
X152100476Y-98698095D01*
X152290952Y-98745714D01*
X152671905Y-98745714D01*
X152767143Y-98698095D01*
X152814762Y-98650476D01*
X152862381Y-98555238D01*
X152862381Y-98364761D01*
X152814762Y-98269523D01*
X152767143Y-98221904D01*
X152671905Y-98174285D01*
X152433810Y-98174285D01*
X152338571Y-98221904D01*
X152290952Y-98269523D01*
X152243333Y-98364761D01*
X152243333Y-98555238D01*
X152290952Y-98650476D01*
X152338571Y-98698095D01*
X152433810Y-98745714D01*
X155527143Y-88216666D02*
X155574762Y-88264285D01*
X155622381Y-88407142D01*
X155622381Y-88502380D01*
X155574762Y-88645238D01*
X155479524Y-88740476D01*
X155384286Y-88788095D01*
X155193810Y-88835714D01*
X155050952Y-88835714D01*
X154860476Y-88788095D01*
X154765238Y-88740476D01*
X154670000Y-88645238D01*
X154622381Y-88502380D01*
X154622381Y-88407142D01*
X154670000Y-88264285D01*
X154717619Y-88216666D01*
X154622381Y-87883333D02*
X154622381Y-87264285D01*
X155003333Y-87597619D01*
X155003333Y-87454761D01*
X155050952Y-87359523D01*
X155098571Y-87311904D01*
X155193810Y-87264285D01*
X155431905Y-87264285D01*
X155527143Y-87311904D01*
X155574762Y-87359523D01*
X155622381Y-87454761D01*
X155622381Y-87740476D01*
X155574762Y-87835714D01*
X155527143Y-87883333D01*
X143877143Y-89071666D02*
X143924762Y-89119285D01*
X143972381Y-89262142D01*
X143972381Y-89357380D01*
X143924762Y-89500238D01*
X143829524Y-89595476D01*
X143734286Y-89643095D01*
X143543810Y-89690714D01*
X143400952Y-89690714D01*
X143210476Y-89643095D01*
X143115238Y-89595476D01*
X143020000Y-89500238D01*
X142972381Y-89357380D01*
X142972381Y-89262142D01*
X143020000Y-89119285D01*
X143067619Y-89071666D01*
X143972381Y-88119285D02*
X143972381Y-88690714D01*
X143972381Y-88405000D02*
X142972381Y-88405000D01*
X143115238Y-88500238D01*
X143210476Y-88595476D01*
X143258095Y-88690714D01*
X152782381Y-91441905D02*
X153591905Y-91441905D01*
X153687143Y-91394286D01*
X153734762Y-91346667D01*
X153782381Y-91251429D01*
X153782381Y-91060952D01*
X153734762Y-90965714D01*
X153687143Y-90918095D01*
X153591905Y-90870476D01*
X152782381Y-90870476D01*
X153782381Y-89870476D02*
X153782381Y-90441905D01*
X153782381Y-90156191D02*
X152782381Y-90156191D01*
X152925238Y-90251429D01*
X153020476Y-90346667D01*
X153068095Y-90441905D01*
X188666667Y-108622381D02*
X188333333Y-108146190D01*
X188095238Y-108622381D02*
X188095238Y-107622381D01*
X188476191Y-107622381D01*
X188571429Y-107670000D01*
X188619048Y-107717619D01*
X188666667Y-107812857D01*
X188666667Y-107955714D01*
X188619048Y-108050952D01*
X188571429Y-108098571D01*
X188476191Y-108146190D01*
X188095238Y-108146190D01*
X189095238Y-108098571D02*
X189428572Y-108098571D01*
X189571429Y-108622381D02*
X189095238Y-108622381D01*
X189095238Y-107622381D01*
X189571429Y-107622381D01*
X190333334Y-108098571D02*
X190000000Y-108098571D01*
X190000000Y-108622381D02*
X190000000Y-107622381D01*
X190476191Y-107622381D01*
X191000000Y-107622381D02*
X191000000Y-107860476D01*
X190761905Y-107765238D02*
X191000000Y-107860476D01*
X191238096Y-107765238D01*
X190857143Y-108050952D02*
X191000000Y-107860476D01*
X191142858Y-108050952D01*
X191761905Y-107622381D02*
X191761905Y-107860476D01*
X191523810Y-107765238D02*
X191761905Y-107860476D01*
X192000001Y-107765238D01*
X191619048Y-108050952D02*
X191761905Y-107860476D01*
X191904763Y-108050952D01*
X183997011Y-98428011D02*
X184711297Y-98428011D01*
X184854154Y-98475631D01*
X184949392Y-98570869D01*
X184997011Y-98713726D01*
X184997011Y-98808964D01*
X184092249Y-97999440D02*
X184044630Y-97951821D01*
X183997011Y-97856583D01*
X183997011Y-97618487D01*
X184044630Y-97523249D01*
X184092249Y-97475630D01*
X184187487Y-97428011D01*
X184282725Y-97428011D01*
X184425582Y-97475630D01*
X184997011Y-98047059D01*
X184997011Y-97428011D01*
X173262725Y-98627059D02*
X173262725Y-99436583D01*
X173310344Y-99531821D01*
X173357963Y-99579440D01*
X173453201Y-99627059D01*
X173643678Y-99627059D01*
X173738916Y-99579440D01*
X173786535Y-99531821D01*
X173834154Y-99436583D01*
X173834154Y-98627059D01*
X174738916Y-98627059D02*
X174548439Y-98627059D01*
X174453201Y-98674678D01*
X174405582Y-98722297D01*
X174310344Y-98865154D01*
X174262725Y-99055630D01*
X174262725Y-99436583D01*
X174310344Y-99531821D01*
X174357963Y-99579440D01*
X174453201Y-99627059D01*
X174643678Y-99627059D01*
X174738916Y-99579440D01*
X174786535Y-99531821D01*
X174834154Y-99436583D01*
X174834154Y-99198488D01*
X174786535Y-99103249D01*
X174738916Y-99055630D01*
X174643678Y-99008011D01*
X174453201Y-99008011D01*
X174357963Y-99055630D01*
X174310344Y-99103249D01*
X174262725Y-99198488D01*
X188666667Y-83622381D02*
X188333333Y-83146190D01*
X188095238Y-83622381D02*
X188095238Y-82622381D01*
X188476191Y-82622381D01*
X188571429Y-82670000D01*
X188619048Y-82717619D01*
X188666667Y-82812857D01*
X188666667Y-82955714D01*
X188619048Y-83050952D01*
X188571429Y-83098571D01*
X188476191Y-83146190D01*
X188095238Y-83146190D01*
X189095238Y-83098571D02*
X189428572Y-83098571D01*
X189571429Y-83622381D02*
X189095238Y-83622381D01*
X189095238Y-82622381D01*
X189571429Y-82622381D01*
X190333334Y-83098571D02*
X190000000Y-83098571D01*
X190000000Y-83622381D02*
X190000000Y-82622381D01*
X190476191Y-82622381D01*
X191000000Y-82622381D02*
X191000000Y-82860476D01*
X190761905Y-82765238D02*
X191000000Y-82860476D01*
X191238096Y-82765238D01*
X190857143Y-83050952D02*
X191000000Y-82860476D01*
X191142858Y-83050952D01*
X191761905Y-82622381D02*
X191761905Y-82860476D01*
X191523810Y-82765238D02*
X191761905Y-82860476D01*
X192000001Y-82765238D01*
X191619048Y-83050952D02*
X191761905Y-82860476D01*
X191904763Y-83050952D01*
D13*
X178273106Y-77956583D02*
X178273106Y-78604202D01*
X178311201Y-78680392D01*
X178349297Y-78718488D01*
X178425487Y-78756583D01*
X178577868Y-78756583D01*
X178654059Y-78718488D01*
X178692154Y-78680392D01*
X178730249Y-78604202D01*
X178730249Y-77956583D01*
X179492154Y-77956583D02*
X179111201Y-77956583D01*
X179073106Y-78337535D01*
X179111201Y-78299440D01*
X179187392Y-78261345D01*
X179377868Y-78261345D01*
X179454058Y-78299440D01*
X179492154Y-78337535D01*
X179530249Y-78413726D01*
X179530249Y-78604202D01*
X179492154Y-78680392D01*
X179454058Y-78718488D01*
X179377868Y-78756583D01*
X179187392Y-78756583D01*
X179111201Y-78718488D01*
X179073106Y-78680392D01*
D12*
X179787143Y-83786666D02*
X179834762Y-83834285D01*
X179882381Y-83977142D01*
X179882381Y-84072380D01*
X179834762Y-84215238D01*
X179739524Y-84310476D01*
X179644286Y-84358095D01*
X179453810Y-84405714D01*
X179310952Y-84405714D01*
X179120476Y-84358095D01*
X179025238Y-84310476D01*
X178930000Y-84215238D01*
X178882381Y-84072380D01*
X178882381Y-83977142D01*
X178930000Y-83834285D01*
X178977619Y-83786666D01*
X179882381Y-83310476D02*
X179882381Y-83120000D01*
X179834762Y-83024761D01*
X179787143Y-82977142D01*
X179644286Y-82881904D01*
X179453810Y-82834285D01*
X179072857Y-82834285D01*
X178977619Y-82881904D01*
X178930000Y-82929523D01*
X178882381Y-83024761D01*
X178882381Y-83215238D01*
X178930000Y-83310476D01*
X178977619Y-83358095D01*
X179072857Y-83405714D01*
X179310952Y-83405714D01*
X179406190Y-83358095D01*
X179453810Y-83310476D01*
X179501429Y-83215238D01*
X179501429Y-83024761D01*
X179453810Y-82929523D01*
X179406190Y-82881904D01*
X179310952Y-82834285D01*
X165817143Y-93946666D02*
X165864762Y-93994285D01*
X165912381Y-94137142D01*
X165912381Y-94232380D01*
X165864762Y-94375238D01*
X165769524Y-94470476D01*
X165674286Y-94518095D01*
X165483810Y-94565714D01*
X165340952Y-94565714D01*
X165150476Y-94518095D01*
X165055238Y-94470476D01*
X164960000Y-94375238D01*
X164912381Y-94232380D01*
X164912381Y-94137142D01*
X164960000Y-93994285D01*
X165007619Y-93946666D01*
X165340952Y-93375238D02*
X165293333Y-93470476D01*
X165245714Y-93518095D01*
X165150476Y-93565714D01*
X165102857Y-93565714D01*
X165007619Y-93518095D01*
X164960000Y-93470476D01*
X164912381Y-93375238D01*
X164912381Y-93184761D01*
X164960000Y-93089523D01*
X165007619Y-93041904D01*
X165102857Y-92994285D01*
X165150476Y-92994285D01*
X165245714Y-93041904D01*
X165293333Y-93089523D01*
X165340952Y-93184761D01*
X165340952Y-93375238D01*
X165388571Y-93470476D01*
X165436190Y-93518095D01*
X165531429Y-93565714D01*
X165721905Y-93565714D01*
X165817143Y-93518095D01*
X165864762Y-93470476D01*
X165912381Y-93375238D01*
X165912381Y-93184761D01*
X165864762Y-93089523D01*
X165817143Y-93041904D01*
X165721905Y-92994285D01*
X165531429Y-92994285D01*
X165436190Y-93041904D01*
X165388571Y-93089523D01*
X165340952Y-93184761D01*
D13*
X165089106Y-78258583D02*
X165089106Y-78906202D01*
X165127201Y-78982392D01*
X165165297Y-79020488D01*
X165241487Y-79058583D01*
X165393868Y-79058583D01*
X165470059Y-79020488D01*
X165508154Y-78982392D01*
X165546249Y-78906202D01*
X165546249Y-78258583D01*
X165851011Y-78258583D02*
X166384344Y-78258583D01*
X166041487Y-79058583D01*
D12*
X128666667Y-83622381D02*
X128333333Y-83146190D01*
X128095238Y-83622381D02*
X128095238Y-82622381D01*
X128476191Y-82622381D01*
X128571429Y-82670000D01*
X128619048Y-82717619D01*
X128666667Y-82812857D01*
X128666667Y-82955714D01*
X128619048Y-83050952D01*
X128571429Y-83098571D01*
X128476191Y-83146190D01*
X128095238Y-83146190D01*
X129095238Y-83098571D02*
X129428572Y-83098571D01*
X129571429Y-83622381D02*
X129095238Y-83622381D01*
X129095238Y-82622381D01*
X129571429Y-82622381D01*
X130333334Y-83098571D02*
X130000000Y-83098571D01*
X130000000Y-83622381D02*
X130000000Y-82622381D01*
X130476191Y-82622381D01*
X131000000Y-82622381D02*
X131000000Y-82860476D01*
X130761905Y-82765238D02*
X131000000Y-82860476D01*
X131238096Y-82765238D01*
X130857143Y-83050952D02*
X131000000Y-82860476D01*
X131142858Y-83050952D01*
X131761905Y-82622381D02*
X131761905Y-82860476D01*
X131523810Y-82765238D02*
X131761905Y-82860476D01*
X132000001Y-82765238D01*
X131619048Y-83050952D02*
X131761905Y-82860476D01*
X131904763Y-83050952D01*
X139386667Y-94782381D02*
X139386667Y-95496667D01*
X139339047Y-95639524D01*
X139243809Y-95734762D01*
X139100952Y-95782381D01*
X139005714Y-95782381D01*
X139862857Y-95782381D02*
X139862857Y-94782381D01*
X140243810Y-94782381D01*
X140339048Y-94830000D01*
X140386667Y-94877619D01*
X140434286Y-94972857D01*
X140434286Y-95115714D01*
X140386667Y-95210952D01*
X140339048Y-95258571D01*
X140243810Y-95306190D01*
X139862857Y-95306190D01*
X141386667Y-95782381D02*
X140815238Y-95782381D01*
X141100952Y-95782381D02*
X141100952Y-94782381D01*
X141005714Y-94925238D01*
X140910476Y-95020476D01*
X140815238Y-95068095D01*
X159117143Y-88966666D02*
X159164762Y-89014285D01*
X159212381Y-89157142D01*
X159212381Y-89252380D01*
X159164762Y-89395238D01*
X159069524Y-89490476D01*
X158974286Y-89538095D01*
X158783810Y-89585714D01*
X158640952Y-89585714D01*
X158450476Y-89538095D01*
X158355238Y-89490476D01*
X158260000Y-89395238D01*
X158212381Y-89252380D01*
X158212381Y-89157142D01*
X158260000Y-89014285D01*
X158307619Y-88966666D01*
X158545714Y-88109523D02*
X159212381Y-88109523D01*
X158164762Y-88347619D02*
X158879048Y-88585714D01*
X158879048Y-87966666D01*
X129666667Y-90122381D02*
X129666667Y-90836667D01*
X129619047Y-90979524D01*
X129523809Y-91074762D01*
X129380952Y-91122381D01*
X129285714Y-91122381D01*
X130666667Y-91122381D02*
X130095238Y-91122381D01*
X130380952Y-91122381D02*
X130380952Y-90122381D01*
X130285714Y-90265238D01*
X130190476Y-90360476D01*
X130095238Y-90408095D01*
X128666667Y-45622381D02*
X128333333Y-45146190D01*
X128095238Y-45622381D02*
X128095238Y-44622381D01*
X128476191Y-44622381D01*
X128571429Y-44670000D01*
X128619048Y-44717619D01*
X128666667Y-44812857D01*
X128666667Y-44955714D01*
X128619048Y-45050952D01*
X128571429Y-45098571D01*
X128476191Y-45146190D01*
X128095238Y-45146190D01*
X129095238Y-45098571D02*
X129428572Y-45098571D01*
X129571429Y-45622381D02*
X129095238Y-45622381D01*
X129095238Y-44622381D01*
X129571429Y-44622381D01*
X130333334Y-45098571D02*
X130000000Y-45098571D01*
X130000000Y-45622381D02*
X130000000Y-44622381D01*
X130476191Y-44622381D01*
X131000000Y-44622381D02*
X131000000Y-44860476D01*
X130761905Y-44765238D02*
X131000000Y-44860476D01*
X131238096Y-44765238D01*
X130857143Y-45050952D02*
X131000000Y-44860476D01*
X131142858Y-45050952D01*
X131761905Y-44622381D02*
X131761905Y-44860476D01*
X131523810Y-44765238D02*
X131761905Y-44860476D01*
X132000001Y-44765238D01*
X131619048Y-45050952D02*
X131761905Y-44860476D01*
X131904763Y-45050952D01*
X128666667Y-70622381D02*
X128333333Y-70146190D01*
X128095238Y-70622381D02*
X128095238Y-69622381D01*
X128476191Y-69622381D01*
X128571429Y-69670000D01*
X128619048Y-69717619D01*
X128666667Y-69812857D01*
X128666667Y-69955714D01*
X128619048Y-70050952D01*
X128571429Y-70098571D01*
X128476191Y-70146190D01*
X128095238Y-70146190D01*
X129095238Y-70098571D02*
X129428572Y-70098571D01*
X129571429Y-70622381D02*
X129095238Y-70622381D01*
X129095238Y-69622381D01*
X129571429Y-69622381D01*
X130333334Y-70098571D02*
X130000000Y-70098571D01*
X130000000Y-70622381D02*
X130000000Y-69622381D01*
X130476191Y-69622381D01*
X131000000Y-69622381D02*
X131000000Y-69860476D01*
X130761905Y-69765238D02*
X131000000Y-69860476D01*
X131238096Y-69765238D01*
X130857143Y-70050952D02*
X131000000Y-69860476D01*
X131142858Y-70050952D01*
X131761905Y-69622381D02*
X131761905Y-69860476D01*
X131523810Y-69765238D02*
X131761905Y-69860476D01*
X132000001Y-69765238D01*
X131619048Y-70050952D02*
X131761905Y-69860476D01*
X131904763Y-70050952D01*
X188666667Y-70622381D02*
X188333333Y-70146190D01*
X188095238Y-70622381D02*
X188095238Y-69622381D01*
X188476191Y-69622381D01*
X188571429Y-69670000D01*
X188619048Y-69717619D01*
X188666667Y-69812857D01*
X188666667Y-69955714D01*
X188619048Y-70050952D01*
X188571429Y-70098571D01*
X188476191Y-70146190D01*
X188095238Y-70146190D01*
X189095238Y-70098571D02*
X189428572Y-70098571D01*
X189571429Y-70622381D02*
X189095238Y-70622381D01*
X189095238Y-69622381D01*
X189571429Y-69622381D01*
X190333334Y-70098571D02*
X190000000Y-70098571D01*
X190000000Y-70622381D02*
X190000000Y-69622381D01*
X190476191Y-69622381D01*
X191000000Y-69622381D02*
X191000000Y-69860476D01*
X190761905Y-69765238D02*
X191000000Y-69860476D01*
X191238096Y-69765238D01*
X190857143Y-70050952D02*
X191000000Y-69860476D01*
X191142858Y-70050952D01*
X191761905Y-69622381D02*
X191761905Y-69860476D01*
X191523810Y-69765238D02*
X191761905Y-69860476D01*
X192000001Y-69765238D01*
X191619048Y-70050952D02*
X191761905Y-69860476D01*
X191904763Y-70050952D01*
X143877143Y-51071666D02*
X143924762Y-51119285D01*
X143972381Y-51262142D01*
X143972381Y-51357380D01*
X143924762Y-51500238D01*
X143829524Y-51595476D01*
X143734286Y-51643095D01*
X143543810Y-51690714D01*
X143400952Y-51690714D01*
X143210476Y-51643095D01*
X143115238Y-51595476D01*
X143020000Y-51500238D01*
X142972381Y-51357380D01*
X142972381Y-51262142D01*
X143020000Y-51119285D01*
X143067619Y-51071666D01*
X143972381Y-50119285D02*
X143972381Y-50690714D01*
X143972381Y-50405000D02*
X142972381Y-50405000D01*
X143115238Y-50500238D01*
X143210476Y-50595476D01*
X143258095Y-50690714D01*
X145367143Y-50216666D02*
X145414762Y-50264285D01*
X145462381Y-50407142D01*
X145462381Y-50502380D01*
X145414762Y-50645238D01*
X145319524Y-50740476D01*
X145224286Y-50788095D01*
X145033810Y-50835714D01*
X144890952Y-50835714D01*
X144700476Y-50788095D01*
X144605238Y-50740476D01*
X144510000Y-50645238D01*
X144462381Y-50502380D01*
X144462381Y-50407142D01*
X144510000Y-50264285D01*
X144557619Y-50216666D01*
X144557619Y-49835714D02*
X144510000Y-49788095D01*
X144462381Y-49692857D01*
X144462381Y-49454761D01*
X144510000Y-49359523D01*
X144557619Y-49311904D01*
X144652857Y-49264285D01*
X144748095Y-49264285D01*
X144890952Y-49311904D01*
X145462381Y-49883333D01*
X145462381Y-49264285D01*
X155527143Y-50216666D02*
X155574762Y-50264285D01*
X155622381Y-50407142D01*
X155622381Y-50502380D01*
X155574762Y-50645238D01*
X155479524Y-50740476D01*
X155384286Y-50788095D01*
X155193810Y-50835714D01*
X155050952Y-50835714D01*
X154860476Y-50788095D01*
X154765238Y-50740476D01*
X154670000Y-50645238D01*
X154622381Y-50502380D01*
X154622381Y-50407142D01*
X154670000Y-50264285D01*
X154717619Y-50216666D01*
X154622381Y-49883333D02*
X154622381Y-49264285D01*
X155003333Y-49597619D01*
X155003333Y-49454761D01*
X155050952Y-49359523D01*
X155098571Y-49311904D01*
X155193810Y-49264285D01*
X155431905Y-49264285D01*
X155527143Y-49311904D01*
X155574762Y-49359523D01*
X155622381Y-49454761D01*
X155622381Y-49740476D01*
X155574762Y-49835714D01*
X155527143Y-49883333D01*
X159117143Y-50966666D02*
X159164762Y-51014285D01*
X159212381Y-51157142D01*
X159212381Y-51252380D01*
X159164762Y-51395238D01*
X159069524Y-51490476D01*
X158974286Y-51538095D01*
X158783810Y-51585714D01*
X158640952Y-51585714D01*
X158450476Y-51538095D01*
X158355238Y-51490476D01*
X158260000Y-51395238D01*
X158212381Y-51252380D01*
X158212381Y-51157142D01*
X158260000Y-51014285D01*
X158307619Y-50966666D01*
X158545714Y-50109523D02*
X159212381Y-50109523D01*
X158164762Y-50347619D02*
X158879048Y-50585714D01*
X158879048Y-49966666D01*
X150227143Y-61021666D02*
X150274762Y-61069285D01*
X150322381Y-61212142D01*
X150322381Y-61307380D01*
X150274762Y-61450238D01*
X150179524Y-61545476D01*
X150084286Y-61593095D01*
X149893810Y-61640714D01*
X149750952Y-61640714D01*
X149560476Y-61593095D01*
X149465238Y-61545476D01*
X149370000Y-61450238D01*
X149322381Y-61307380D01*
X149322381Y-61212142D01*
X149370000Y-61069285D01*
X149417619Y-61021666D01*
X149322381Y-60116904D02*
X149322381Y-60593095D01*
X149798571Y-60640714D01*
X149750952Y-60593095D01*
X149703333Y-60497857D01*
X149703333Y-60259761D01*
X149750952Y-60164523D01*
X149798571Y-60116904D01*
X149893810Y-60069285D01*
X150131905Y-60069285D01*
X150227143Y-60116904D01*
X150274762Y-60164523D01*
X150322381Y-60259761D01*
X150322381Y-60497857D01*
X150274762Y-60593095D01*
X150227143Y-60640714D01*
X152767143Y-61126666D02*
X152814762Y-61174285D01*
X152862381Y-61317142D01*
X152862381Y-61412380D01*
X152814762Y-61555238D01*
X152719524Y-61650476D01*
X152624286Y-61698095D01*
X152433810Y-61745714D01*
X152290952Y-61745714D01*
X152100476Y-61698095D01*
X152005238Y-61650476D01*
X151910000Y-61555238D01*
X151862381Y-61412380D01*
X151862381Y-61317142D01*
X151910000Y-61174285D01*
X151957619Y-61126666D01*
X151862381Y-60269523D02*
X151862381Y-60460000D01*
X151910000Y-60555238D01*
X151957619Y-60602857D01*
X152100476Y-60698095D01*
X152290952Y-60745714D01*
X152671905Y-60745714D01*
X152767143Y-60698095D01*
X152814762Y-60650476D01*
X152862381Y-60555238D01*
X152862381Y-60364761D01*
X152814762Y-60269523D01*
X152767143Y-60221904D01*
X152671905Y-60174285D01*
X152433810Y-60174285D01*
X152338571Y-60221904D01*
X152290952Y-60269523D01*
X152243333Y-60364761D01*
X152243333Y-60555238D01*
X152290952Y-60650476D01*
X152338571Y-60698095D01*
X152433810Y-60745714D01*
X146403334Y-69977143D02*
X146355715Y-70024762D01*
X146212858Y-70072381D01*
X146117620Y-70072381D01*
X145974762Y-70024762D01*
X145879524Y-69929524D01*
X145831905Y-69834286D01*
X145784286Y-69643810D01*
X145784286Y-69500952D01*
X145831905Y-69310476D01*
X145879524Y-69215238D01*
X145974762Y-69120000D01*
X146117620Y-69072381D01*
X146212858Y-69072381D01*
X146355715Y-69120000D01*
X146403334Y-69167619D01*
X146736667Y-69072381D02*
X147403334Y-69072381D01*
X146974762Y-70072381D01*
X165817143Y-55946666D02*
X165864762Y-55994285D01*
X165912381Y-56137142D01*
X165912381Y-56232380D01*
X165864762Y-56375238D01*
X165769524Y-56470476D01*
X165674286Y-56518095D01*
X165483810Y-56565714D01*
X165340952Y-56565714D01*
X165150476Y-56518095D01*
X165055238Y-56470476D01*
X164960000Y-56375238D01*
X164912381Y-56232380D01*
X164912381Y-56137142D01*
X164960000Y-55994285D01*
X165007619Y-55946666D01*
X165340952Y-55375238D02*
X165293333Y-55470476D01*
X165245714Y-55518095D01*
X165150476Y-55565714D01*
X165102857Y-55565714D01*
X165007619Y-55518095D01*
X164960000Y-55470476D01*
X164912381Y-55375238D01*
X164912381Y-55184761D01*
X164960000Y-55089523D01*
X165007619Y-55041904D01*
X165102857Y-54994285D01*
X165150476Y-54994285D01*
X165245714Y-55041904D01*
X165293333Y-55089523D01*
X165340952Y-55184761D01*
X165340952Y-55375238D01*
X165388571Y-55470476D01*
X165436190Y-55518095D01*
X165531429Y-55565714D01*
X165721905Y-55565714D01*
X165817143Y-55518095D01*
X165864762Y-55470476D01*
X165912381Y-55375238D01*
X165912381Y-55184761D01*
X165864762Y-55089523D01*
X165817143Y-55041904D01*
X165721905Y-54994285D01*
X165531429Y-54994285D01*
X165436190Y-55041904D01*
X165388571Y-55089523D01*
X165340952Y-55184761D01*
X179787143Y-45786666D02*
X179834762Y-45834285D01*
X179882381Y-45977142D01*
X179882381Y-46072380D01*
X179834762Y-46215238D01*
X179739524Y-46310476D01*
X179644286Y-46358095D01*
X179453810Y-46405714D01*
X179310952Y-46405714D01*
X179120476Y-46358095D01*
X179025238Y-46310476D01*
X178930000Y-46215238D01*
X178882381Y-46072380D01*
X178882381Y-45977142D01*
X178930000Y-45834285D01*
X178977619Y-45786666D01*
X179882381Y-45310476D02*
X179882381Y-45120000D01*
X179834762Y-45024761D01*
X179787143Y-44977142D01*
X179644286Y-44881904D01*
X179453810Y-44834285D01*
X179072857Y-44834285D01*
X178977619Y-44881904D01*
X178930000Y-44929523D01*
X178882381Y-45024761D01*
X178882381Y-45215238D01*
X178930000Y-45310476D01*
X178977619Y-45358095D01*
X179072857Y-45405714D01*
X179310952Y-45405714D01*
X179406190Y-45358095D01*
X179453810Y-45310476D01*
X179501429Y-45215238D01*
X179501429Y-45024761D01*
X179453810Y-44929523D01*
X179406190Y-44881904D01*
X179310952Y-44834285D01*
X183997011Y-60428011D02*
X184711297Y-60428011D01*
X184854154Y-60475631D01*
X184949392Y-60570869D01*
X184997011Y-60713726D01*
X184997011Y-60808964D01*
X184092249Y-59999440D02*
X184044630Y-59951821D01*
X183997011Y-59856583D01*
X183997011Y-59618487D01*
X184044630Y-59523249D01*
X184092249Y-59475630D01*
X184187487Y-59428011D01*
X184282725Y-59428011D01*
X184425582Y-59475630D01*
X184997011Y-60047059D01*
X184997011Y-59428011D01*
X139386667Y-56782381D02*
X139386667Y-57496667D01*
X139339047Y-57639524D01*
X139243809Y-57734762D01*
X139100952Y-57782381D01*
X139005714Y-57782381D01*
X139862857Y-57782381D02*
X139862857Y-56782381D01*
X140243810Y-56782381D01*
X140339048Y-56830000D01*
X140386667Y-56877619D01*
X140434286Y-56972857D01*
X140434286Y-57115714D01*
X140386667Y-57210952D01*
X140339048Y-57258571D01*
X140243810Y-57306190D01*
X139862857Y-57306190D01*
X141386667Y-57782381D02*
X140815238Y-57782381D01*
X141100952Y-57782381D02*
X141100952Y-56782381D01*
X141005714Y-56925238D01*
X140910476Y-57020476D01*
X140815238Y-57068095D01*
X141242381Y-68226666D02*
X140766190Y-68560000D01*
X141242381Y-68798095D02*
X140242381Y-68798095D01*
X140242381Y-68417142D01*
X140290000Y-68321904D01*
X140337619Y-68274285D01*
X140432857Y-68226666D01*
X140575714Y-68226666D01*
X140670952Y-68274285D01*
X140718571Y-68321904D01*
X140766190Y-68417142D01*
X140766190Y-68798095D01*
X141242381Y-67274285D02*
X141242381Y-67845714D01*
X141242381Y-67560000D02*
X140242381Y-67560000D01*
X140385238Y-67655238D01*
X140480476Y-67750476D01*
X140528095Y-67845714D01*
X152782381Y-53441905D02*
X153591905Y-53441905D01*
X153687143Y-53394286D01*
X153734762Y-53346667D01*
X153782381Y-53251429D01*
X153782381Y-53060952D01*
X153734762Y-52965714D01*
X153687143Y-52918095D01*
X153591905Y-52870476D01*
X152782381Y-52870476D01*
X153782381Y-51870476D02*
X153782381Y-52441905D01*
X153782381Y-52156191D02*
X152782381Y-52156191D01*
X152925238Y-52251429D01*
X153020476Y-52346667D01*
X153068095Y-52441905D01*
X145652381Y-53441905D02*
X146461905Y-53441905D01*
X146557143Y-53394286D01*
X146604762Y-53346667D01*
X146652381Y-53251429D01*
X146652381Y-53060952D01*
X146604762Y-52965714D01*
X146557143Y-52918095D01*
X146461905Y-52870476D01*
X145652381Y-52870476D01*
X145747619Y-52441905D02*
X145700000Y-52394286D01*
X145652381Y-52299048D01*
X145652381Y-52060952D01*
X145700000Y-51965714D01*
X145747619Y-51918095D01*
X145842857Y-51870476D01*
X145938095Y-51870476D01*
X146080952Y-51918095D01*
X146652381Y-52489524D01*
X146652381Y-51870476D01*
X139660381Y-59181905D02*
X140469905Y-59181905D01*
X140565143Y-59134286D01*
X140612762Y-59086667D01*
X140660381Y-58991429D01*
X140660381Y-58800952D01*
X140612762Y-58705714D01*
X140565143Y-58658095D01*
X140469905Y-58610476D01*
X139660381Y-58610476D01*
X139660381Y-58229524D02*
X139660381Y-57610476D01*
X140041333Y-57943810D01*
X140041333Y-57800952D01*
X140088952Y-57705714D01*
X140136571Y-57658095D01*
X140231810Y-57610476D01*
X140469905Y-57610476D01*
X140565143Y-57658095D01*
X140612762Y-57705714D01*
X140660381Y-57800952D01*
X140660381Y-58086667D01*
X140612762Y-58181905D01*
X140565143Y-58229524D01*
D10*
X138664190Y-50895237D02*
X138664190Y-51133332D01*
X138902286Y-51157142D01*
X138878476Y-51133332D01*
X138854667Y-51085713D01*
X138854667Y-50966666D01*
X138878476Y-50919047D01*
X138902286Y-50895237D01*
X138949905Y-50871428D01*
X139068952Y-50871428D01*
X139116571Y-50895237D01*
X139140381Y-50919047D01*
X139164190Y-50966666D01*
X139164190Y-51085713D01*
X139140381Y-51133332D01*
X139116571Y-51157142D01*
X138664190Y-50728571D02*
X139164190Y-50561904D01*
X138664190Y-50395238D01*
X138688000Y-53720953D02*
X138664190Y-53768572D01*
X138664190Y-53840000D01*
X138688000Y-53911429D01*
X138735619Y-53959048D01*
X138783238Y-53982857D01*
X138878476Y-54006667D01*
X138949905Y-54006667D01*
X139045143Y-53982857D01*
X139092762Y-53959048D01*
X139140381Y-53911429D01*
X139164190Y-53840000D01*
X139164190Y-53792381D01*
X139140381Y-53720953D01*
X139116571Y-53697143D01*
X138949905Y-53697143D01*
X138949905Y-53792381D01*
X139164190Y-53482857D02*
X138664190Y-53482857D01*
X139164190Y-53197143D01*
X138664190Y-53197143D01*
X139164190Y-52959047D02*
X138664190Y-52959047D01*
X138664190Y-52840000D01*
X138688000Y-52768571D01*
X138735619Y-52720952D01*
X138783238Y-52697143D01*
X138878476Y-52673333D01*
X138949905Y-52673333D01*
X139045143Y-52697143D01*
X139092762Y-52720952D01*
X139140381Y-52768571D01*
X139164190Y-52840000D01*
X139164190Y-52959047D01*
X139164190Y-56249047D02*
X138664190Y-56249047D01*
X138664190Y-56130000D01*
X138688000Y-56058571D01*
X138735619Y-56010952D01*
X138783238Y-55987143D01*
X138878476Y-55963333D01*
X138949905Y-55963333D01*
X139045143Y-55987143D01*
X139092762Y-56010952D01*
X139140381Y-56058571D01*
X139164190Y-56130000D01*
X139164190Y-56249047D01*
X138830857Y-55534762D02*
X139164190Y-55534762D01*
X138640381Y-55653809D02*
X138997524Y-55772857D01*
X138997524Y-55463333D01*
X139164190Y-58789047D02*
X138664190Y-58789047D01*
X138664190Y-58670000D01*
X138688000Y-58598571D01*
X138735619Y-58550952D01*
X138783238Y-58527143D01*
X138878476Y-58503333D01*
X138949905Y-58503333D01*
X139045143Y-58527143D01*
X139092762Y-58550952D01*
X139140381Y-58598571D01*
X139164190Y-58670000D01*
X139164190Y-58789047D01*
X138664190Y-58336666D02*
X138664190Y-58027143D01*
X138854667Y-58193809D01*
X138854667Y-58122381D01*
X138878476Y-58074762D01*
X138902286Y-58050952D01*
X138949905Y-58027143D01*
X139068952Y-58027143D01*
X139116571Y-58050952D01*
X139140381Y-58074762D01*
X139164190Y-58122381D01*
X139164190Y-58265238D01*
X139140381Y-58312857D01*
X139116571Y-58336666D01*
X139164190Y-61329047D02*
X138664190Y-61329047D01*
X138664190Y-61210000D01*
X138688000Y-61138571D01*
X138735619Y-61090952D01*
X138783238Y-61067143D01*
X138878476Y-61043333D01*
X138949905Y-61043333D01*
X139045143Y-61067143D01*
X139092762Y-61090952D01*
X139140381Y-61138571D01*
X139164190Y-61210000D01*
X139164190Y-61329047D01*
X138711810Y-60852857D02*
X138688000Y-60829047D01*
X138664190Y-60781428D01*
X138664190Y-60662381D01*
X138688000Y-60614762D01*
X138711810Y-60590952D01*
X138759429Y-60567143D01*
X138807048Y-60567143D01*
X138878476Y-60590952D01*
X139164190Y-60876666D01*
X139164190Y-60567143D01*
X139164190Y-63869047D02*
X138664190Y-63869047D01*
X138664190Y-63750000D01*
X138688000Y-63678571D01*
X138735619Y-63630952D01*
X138783238Y-63607143D01*
X138878476Y-63583333D01*
X138949905Y-63583333D01*
X139045143Y-63607143D01*
X139092762Y-63630952D01*
X139140381Y-63678571D01*
X139164190Y-63750000D01*
X139164190Y-63869047D01*
X139164190Y-63107143D02*
X139164190Y-63392857D01*
X139164190Y-63250000D02*
X138664190Y-63250000D01*
X138735619Y-63297619D01*
X138783238Y-63345238D01*
X138807048Y-63392857D01*
X139164190Y-66123333D02*
X138926095Y-66290000D01*
X139164190Y-66409047D02*
X138664190Y-66409047D01*
X138664190Y-66218571D01*
X138688000Y-66170952D01*
X138711810Y-66147143D01*
X138759429Y-66123333D01*
X138830857Y-66123333D01*
X138878476Y-66147143D01*
X138902286Y-66170952D01*
X138926095Y-66218571D01*
X138926095Y-66409047D01*
X138664190Y-65956666D02*
X139164190Y-65623333D01*
X138664190Y-65623333D02*
X139164190Y-65956666D01*
X138664190Y-68960952D02*
X138664190Y-68675238D01*
X139164190Y-68818095D02*
X138664190Y-68818095D01*
X138664190Y-68556190D02*
X139164190Y-68222857D01*
X138664190Y-68222857D02*
X139164190Y-68556190D01*
X157968190Y-51419046D02*
X157968190Y-51109523D01*
X158158667Y-51276189D01*
X158158667Y-51204761D01*
X158182476Y-51157142D01*
X158206286Y-51133332D01*
X158253905Y-51109523D01*
X158372952Y-51109523D01*
X158420571Y-51133332D01*
X158444381Y-51157142D01*
X158468190Y-51204761D01*
X158468190Y-51347618D01*
X158444381Y-51395237D01*
X158420571Y-51419046D01*
X157968190Y-50966666D02*
X158468190Y-50799999D01*
X157968190Y-50633333D01*
X157968190Y-50514285D02*
X157968190Y-50204762D01*
X158158667Y-50371428D01*
X158158667Y-50300000D01*
X158182476Y-50252381D01*
X158206286Y-50228571D01*
X158253905Y-50204762D01*
X158372952Y-50204762D01*
X158420571Y-50228571D01*
X158444381Y-50252381D01*
X158468190Y-50300000D01*
X158468190Y-50442857D01*
X158444381Y-50490476D01*
X158420571Y-50514285D01*
X158468190Y-53470952D02*
X157968190Y-53470952D01*
X158444381Y-53470952D02*
X158468190Y-53518571D01*
X158468190Y-53613809D01*
X158444381Y-53661428D01*
X158420571Y-53685237D01*
X158372952Y-53709047D01*
X158230095Y-53709047D01*
X158182476Y-53685237D01*
X158158667Y-53661428D01*
X158134857Y-53613809D01*
X158134857Y-53518571D01*
X158158667Y-53470952D01*
X158182476Y-53161428D02*
X158158667Y-53209047D01*
X158134857Y-53232856D01*
X158087238Y-53256666D01*
X158063429Y-53256666D01*
X158015810Y-53232856D01*
X157992000Y-53209047D01*
X157968190Y-53161428D01*
X157968190Y-53066190D01*
X157992000Y-53018571D01*
X158015810Y-52994761D01*
X158063429Y-52970952D01*
X158087238Y-52970952D01*
X158134857Y-52994761D01*
X158158667Y-53018571D01*
X158182476Y-53066190D01*
X158182476Y-53161428D01*
X158206286Y-53209047D01*
X158230095Y-53232856D01*
X158277714Y-53256666D01*
X158372952Y-53256666D01*
X158420571Y-53232856D01*
X158444381Y-53209047D01*
X158468190Y-53161428D01*
X158468190Y-53066190D01*
X158444381Y-53018571D01*
X158420571Y-52994761D01*
X158372952Y-52970952D01*
X158277714Y-52970952D01*
X158230095Y-52994761D01*
X158206286Y-53018571D01*
X158182476Y-53066190D01*
X158468190Y-56249047D02*
X157968190Y-56249047D01*
X157968190Y-56130000D01*
X157992000Y-56058571D01*
X158039619Y-56010952D01*
X158087238Y-55987143D01*
X158182476Y-55963333D01*
X158253905Y-55963333D01*
X158349143Y-55987143D01*
X158396762Y-56010952D01*
X158444381Y-56058571D01*
X158468190Y-56130000D01*
X158468190Y-56249047D01*
X157968190Y-55796666D02*
X157968190Y-55463333D01*
X158468190Y-55677619D01*
X158468190Y-58789047D02*
X157968190Y-58789047D01*
X157968190Y-58670000D01*
X157992000Y-58598571D01*
X158039619Y-58550952D01*
X158087238Y-58527143D01*
X158182476Y-58503333D01*
X158253905Y-58503333D01*
X158349143Y-58527143D01*
X158396762Y-58550952D01*
X158444381Y-58598571D01*
X158468190Y-58670000D01*
X158468190Y-58789047D01*
X157968190Y-58074762D02*
X157968190Y-58170000D01*
X157992000Y-58217619D01*
X158015810Y-58241428D01*
X158087238Y-58289047D01*
X158182476Y-58312857D01*
X158372952Y-58312857D01*
X158420571Y-58289047D01*
X158444381Y-58265238D01*
X158468190Y-58217619D01*
X158468190Y-58122381D01*
X158444381Y-58074762D01*
X158420571Y-58050952D01*
X158372952Y-58027143D01*
X158253905Y-58027143D01*
X158206286Y-58050952D01*
X158182476Y-58074762D01*
X158158667Y-58122381D01*
X158158667Y-58217619D01*
X158182476Y-58265238D01*
X158206286Y-58289047D01*
X158253905Y-58312857D01*
X158468190Y-61329047D02*
X157968190Y-61329047D01*
X157968190Y-61210000D01*
X157992000Y-61138571D01*
X158039619Y-61090952D01*
X158087238Y-61067143D01*
X158182476Y-61043333D01*
X158253905Y-61043333D01*
X158349143Y-61067143D01*
X158396762Y-61090952D01*
X158444381Y-61138571D01*
X158468190Y-61210000D01*
X158468190Y-61329047D01*
X157968190Y-60590952D02*
X157968190Y-60829047D01*
X158206286Y-60852857D01*
X158182476Y-60829047D01*
X158158667Y-60781428D01*
X158158667Y-60662381D01*
X158182476Y-60614762D01*
X158206286Y-60590952D01*
X158253905Y-60567143D01*
X158372952Y-60567143D01*
X158420571Y-60590952D01*
X158444381Y-60614762D01*
X158468190Y-60662381D01*
X158468190Y-60781428D01*
X158444381Y-60829047D01*
X158420571Y-60852857D01*
X158468190Y-63869047D02*
X157968190Y-63869047D01*
X157968190Y-63750000D01*
X157992000Y-63678571D01*
X158039619Y-63630952D01*
X158087238Y-63607143D01*
X158182476Y-63583333D01*
X158253905Y-63583333D01*
X158349143Y-63607143D01*
X158396762Y-63630952D01*
X158444381Y-63678571D01*
X158468190Y-63750000D01*
X158468190Y-63869047D01*
X157968190Y-63273809D02*
X157968190Y-63226190D01*
X157992000Y-63178571D01*
X158015810Y-63154762D01*
X158063429Y-63130952D01*
X158158667Y-63107143D01*
X158277714Y-63107143D01*
X158372952Y-63130952D01*
X158420571Y-63154762D01*
X158444381Y-63178571D01*
X158468190Y-63226190D01*
X158468190Y-63273809D01*
X158444381Y-63321428D01*
X158420571Y-63345238D01*
X158372952Y-63369047D01*
X158277714Y-63392857D01*
X158158667Y-63392857D01*
X158063429Y-63369047D01*
X158015810Y-63345238D01*
X157992000Y-63321428D01*
X157968190Y-63273809D01*
X158325333Y-66397142D02*
X158325333Y-66159047D01*
X158468190Y-66444761D02*
X157968190Y-66278094D01*
X158468190Y-66111428D01*
X157968190Y-65849523D02*
X157968190Y-65801904D01*
X157992000Y-65754285D01*
X158015810Y-65730476D01*
X158063429Y-65706666D01*
X158158667Y-65682857D01*
X158277714Y-65682857D01*
X158372952Y-65706666D01*
X158420571Y-65730476D01*
X158444381Y-65754285D01*
X158468190Y-65801904D01*
X158468190Y-65849523D01*
X158444381Y-65897142D01*
X158420571Y-65920952D01*
X158372952Y-65944761D01*
X158277714Y-65968571D01*
X158158667Y-65968571D01*
X158063429Y-65944761D01*
X158015810Y-65920952D01*
X157992000Y-65897142D01*
X157968190Y-65849523D01*
X158468190Y-68853809D02*
X158230095Y-69020476D01*
X158468190Y-69139523D02*
X157968190Y-69139523D01*
X157968190Y-68949047D01*
X157992000Y-68901428D01*
X158015810Y-68877619D01*
X158063429Y-68853809D01*
X158134857Y-68853809D01*
X158182476Y-68877619D01*
X158206286Y-68901428D01*
X158230095Y-68949047D01*
X158230095Y-69139523D01*
X158444381Y-68663333D02*
X158468190Y-68591904D01*
X158468190Y-68472857D01*
X158444381Y-68425238D01*
X158420571Y-68401428D01*
X158372952Y-68377619D01*
X158325333Y-68377619D01*
X158277714Y-68401428D01*
X158253905Y-68425238D01*
X158230095Y-68472857D01*
X158206286Y-68568095D01*
X158182476Y-68615714D01*
X158158667Y-68639523D01*
X158111048Y-68663333D01*
X158063429Y-68663333D01*
X158015810Y-68639523D01*
X157992000Y-68615714D01*
X157968190Y-68568095D01*
X157968190Y-68449047D01*
X157992000Y-68377619D01*
X157968190Y-68234762D02*
X157968190Y-67949048D01*
X158468190Y-68091905D02*
X157968190Y-68091905D01*
D12*
X145018095Y-64582381D02*
X145018095Y-65391905D01*
X145065714Y-65487143D01*
X145113333Y-65534762D01*
X145208571Y-65582381D01*
X145399048Y-65582381D01*
X145494286Y-65534762D01*
X145541905Y-65487143D01*
X145589524Y-65391905D01*
X145589524Y-64582381D01*
X146494286Y-64915714D02*
X146494286Y-65582381D01*
X146256190Y-64534762D02*
X146018095Y-65249048D01*
X146637143Y-65249048D01*
D13*
X178273106Y-39956583D02*
X178273106Y-40604202D01*
X178311201Y-40680392D01*
X178349297Y-40718488D01*
X178425487Y-40756583D01*
X178577868Y-40756583D01*
X178654059Y-40718488D01*
X178692154Y-40680392D01*
X178730249Y-40604202D01*
X178730249Y-39956583D01*
X179492154Y-39956583D02*
X179111201Y-39956583D01*
X179073106Y-40337535D01*
X179111201Y-40299440D01*
X179187392Y-40261345D01*
X179377868Y-40261345D01*
X179454058Y-40299440D01*
X179492154Y-40337535D01*
X179530249Y-40413726D01*
X179530249Y-40604202D01*
X179492154Y-40680392D01*
X179454058Y-40718488D01*
X179377868Y-40756583D01*
X179187392Y-40756583D01*
X179111201Y-40718488D01*
X179073106Y-40680392D01*
D12*
X173262725Y-60627059D02*
X173262725Y-61436583D01*
X173310344Y-61531821D01*
X173357963Y-61579440D01*
X173453201Y-61627059D01*
X173643678Y-61627059D01*
X173738916Y-61579440D01*
X173786535Y-61531821D01*
X173834154Y-61436583D01*
X173834154Y-60627059D01*
X174738916Y-60627059D02*
X174548439Y-60627059D01*
X174453201Y-60674678D01*
X174405582Y-60722297D01*
X174310344Y-60865154D01*
X174262725Y-61055630D01*
X174262725Y-61436583D01*
X174310344Y-61531821D01*
X174357963Y-61579440D01*
X174453201Y-61627059D01*
X174643678Y-61627059D01*
X174738916Y-61579440D01*
X174786535Y-61531821D01*
X174834154Y-61436583D01*
X174834154Y-61198488D01*
X174786535Y-61103249D01*
X174738916Y-61055630D01*
X174643678Y-61008011D01*
X174453201Y-61008011D01*
X174357963Y-61055630D01*
X174310344Y-61103249D01*
X174262725Y-61198488D01*
D13*
X165089106Y-40258583D02*
X165089106Y-40906202D01*
X165127201Y-40982392D01*
X165165297Y-41020488D01*
X165241487Y-41058583D01*
X165393868Y-41058583D01*
X165470059Y-41020488D01*
X165508154Y-40982392D01*
X165546249Y-40906202D01*
X165546249Y-40258583D01*
X165851011Y-40258583D02*
X166384344Y-40258583D01*
X166041487Y-41058583D01*
D12*
X129666667Y-52122381D02*
X129666667Y-52836667D01*
X129619047Y-52979524D01*
X129523809Y-53074762D01*
X129380952Y-53122381D01*
X129285714Y-53122381D01*
X130666667Y-53122381D02*
X130095238Y-53122381D01*
X130380952Y-53122381D02*
X130380952Y-52122381D01*
X130285714Y-52265238D01*
X130190476Y-52360476D01*
X130095238Y-52408095D01*
X188666667Y-45622381D02*
X188333333Y-45146190D01*
X188095238Y-45622381D02*
X188095238Y-44622381D01*
X188476191Y-44622381D01*
X188571429Y-44670000D01*
X188619048Y-44717619D01*
X188666667Y-44812857D01*
X188666667Y-44955714D01*
X188619048Y-45050952D01*
X188571429Y-45098571D01*
X188476191Y-45146190D01*
X188095238Y-45146190D01*
X189095238Y-45098571D02*
X189428572Y-45098571D01*
X189571429Y-45622381D02*
X189095238Y-45622381D01*
X189095238Y-44622381D01*
X189571429Y-44622381D01*
X190333334Y-45098571D02*
X190000000Y-45098571D01*
X190000000Y-45622381D02*
X190000000Y-44622381D01*
X190476191Y-44622381D01*
X191000000Y-44622381D02*
X191000000Y-44860476D01*
X190761905Y-44765238D02*
X191000000Y-44860476D01*
X191238096Y-44765238D01*
X190857143Y-45050952D02*
X191000000Y-44860476D01*
X191142858Y-45050952D01*
X191761905Y-44622381D02*
X191761905Y-44860476D01*
X191523810Y-44765238D02*
X191761905Y-44860476D01*
X192000001Y-44765238D01*
X191619048Y-45050952D02*
X191761905Y-44860476D01*
X191904763Y-45050952D01*
M02*
